Altinn-DINCondensed.ufo
<glyph name="dollar" format="2">
  <advance width="380"/>
  <unicode hex="0024"/>
  <outline>
    <contour>
      <point x="280" y="37"/>
      <point x="217" y="28" type="qcurve"/>
      <point x="217" y="-74" type="line"/>
      <point x="163" y="-74" type="line"/>
      <point x="163" y="27" type="line"/>
      <point x="33" y="37"/>
      <point x="27" y="200" type="qcurve"/>
      <point x="97" y="200" type="line"/>
      <point x="102" y="105"/>
      <point x="163" y="88" type="qcurve"/>
      <point x="163" y="327" type="line"/>
      <point x="152" y="332" type="line" smooth="yes"/>
      <point x="84" y="361"/>
      <point x="29" y="438"/>
      <point x="29" y="502" type="qcurve" smooth="yes"/>
      <point x="29" y="580"/>
      <point x="101" y="668"/>
      <point x="163" y="675" type="qcurve"/>
      <point x="163" y="771" type="line"/>
      <point x="217" y="771" type="line"/>
      <point x="217" y="674" type="line"/>
      <point x="328" y="657"/>
      <point x="337" y="502" type="qcurve"/>
      <point x="273" y="502" type="line"/>
      <point x="270" y="591"/>
      <point x="217" y="608" type="qcurve"/>
      <point x="217" y="386" type="line"/>
      <point x="283" y="358"/>
      <point x="344" y="271"/>
      <point x="344" y="202" type="qcurve" smooth="yes"/>
      <point x="344" y="126"/>
    </contour>
    <contour>
      <point x="129" y="424"/>
      <point x="163" y="408" type="qcurve"/>
      <point x="163" y="611" type="line"/>
      <point x="131" y="604"/>
      <point x="97" y="553"/>
      <point x="97" y="512" type="qcurve" smooth="yes"/>
      <point x="97" y="472"/>
    </contour>
    <contour>
      <point x="275" y="193" type="qcurve" smooth="yes"/>
      <point x="275" y="235"/>
      <point x="248" y="284"/>
      <point x="217" y="301" type="qcurve"/>
      <point x="217" y="89" type="line"/>
      <point x="275" y="107"/>
    </contour>
    <contour>
      <point x="59" y="707" type="move" smooth="yes"/>
    </contour>
  </outline>
</glyph>
<glyph name="percent" format="2">
  <advance width="707"/>
  <unicode hex="0025"/>
  <outline>
    <contour>
      <point x="34" y="335"/>
      <point x="34" y="400" type="qcurve" smooth="yes"/>
      <point x="34" y="586" type="line" smooth="yes"/>
      <point x="34" y="651"/>
      <point x="87" y="714"/>
      <point x="141" y="714" type="qcurve" smooth="yes"/>
      <point x="196" y="714"/>
      <point x="249" y="650"/>
      <point x="249" y="586" type="qcurve" smooth="yes"/>
      <point x="249" y="400" type="line" smooth="yes"/>
      <point x="249" y="334"/>
      <point x="197" y="270"/>
      <point x="141" y="270" type="qcurve" smooth="yes"/>
      <point x="86" y="270"/>
    </contour>
    <contour>
      <point x="450" y="707" type="line"/>
      <point x="514" y="707" type="line"/>
      <point x="260" y="0" type="line"/>
      <point x="196" y="0" type="line"/>
    </contour>
    <contour>
      <point x="178" y="365"/>
      <point x="178" y="400" type="qcurve" smooth="yes"/>
      <point x="178" y="586" type="line" smooth="yes"/>
      <point x="178" y="621"/>
      <point x="162" y="650"/>
      <point x="141" y="650" type="qcurve" smooth="yes"/>
      <point x="121" y="650"/>
      <point x="104" y="621"/>
      <point x="104" y="586" type="qcurve" smooth="yes"/>
      <point x="104" y="400" type="line" smooth="yes"/>
      <point x="104" y="364"/>
      <point x="121" y="334"/>
      <point x="141" y="334" type="qcurve" smooth="yes"/>
      <point x="162" y="334"/>
    </contour>
    <contour>
      <point x="460" y="56"/>
      <point x="460" y="122" type="qcurve" smooth="yes"/>
      <point x="460" y="307" type="line" smooth="yes"/>
      <point x="460" y="372"/>
      <point x="513" y="435"/>
      <point x="567" y="435" type="qcurve" smooth="yes"/>
      <point x="622" y="435"/>
      <point x="675" y="372"/>
      <point x="675" y="307" type="qcurve" smooth="yes"/>
      <point x="675" y="122" type="line" smooth="yes"/>
      <point x="675" y="56"/>
      <point x="623" y="-8"/>
      <point x="567" y="-8" type="qcurve" smooth="yes"/>
      <point x="512" y="-8"/>
    </contour>
    <contour>
      <point x="604" y="86"/>
      <point x="604" y="122" type="qcurve" smooth="yes"/>
      <point x="604" y="307" type="line" smooth="yes"/>
      <point x="604" y="342"/>
      <point x="588" y="372"/>
      <point x="567" y="372" type="qcurve" smooth="yes"/>
      <point x="547" y="372"/>
      <point x="530" y="342"/>
      <point x="530" y="307" type="qcurve" smooth="yes"/>
      <point x="530" y="122" type="line" smooth="yes"/>
      <point x="530" y="86"/>
      <point x="547" y="55"/>
      <point x="567" y="55" type="qcurve" smooth="yes"/>
      <point x="588" y="55"/>
    </contour>
  </outline>
</glyph>
<glyph name="quotesingle" format="2">
  <advance width="153"/>
  <unicode hex="0027"/>
  <outline>
    <contour>
      <point x="42" y="707" type="line"/>
      <point x="112" y="707" type="line"/>
      <point x="112" y="469" type="line"/>
      <point x="42" y="469" type="line"/>
    </contour>
  </outline>
</glyph>
<glyph name="parenright" format="2">
  <advance width="265"/>
  <unicode hex="0029"/>
  <outline>
    <contour>
      <point x="143" y="230"/>
      <point x="143" y="336" type="qcurve" smooth="yes"/>
      <point x="143" y="441"/>
      <point x="96" y="656"/>
      <point x="51" y="758" type="qcurve"/>
      <point x="112" y="758" type="line"/>
      <point x="162" y="660"/>
      <point x="214" y="444"/>
      <point x="214" y="336" type="qcurve" smooth="yes"/>
      <point x="214" y="228"/>
      <point x="162" y="13"/>
      <point x="112" y="-86" type="qcurve"/>
      <point x="51" y="-86" type="line"/>
      <point x="96" y="14"/>
    </contour>
  </outline>
</glyph>
<glyph name="hyphen" format="2">
  <advance width="384"/>
  <unicode hex="002D"/>
  <outline>
    <contour>
      <point x="51" y="389" type="line"/>
      <point x="333" y="389" type="line"/>
      <point x="333" y="323" type="line"/>
      <point x="51" y="323" type="line"/>
    </contour>
  </outline>
</glyph>
<glyph name="slash" format="2">
  <advance width="303"/>
  <unicode hex="002F"/>
  <outline>
    <contour>
      <point x="185" y="707" type="line"/>
      <point x="252" y="707" type="line"/>
      <point x="118" y="-10" type="line"/>
      <point x="51" y="-10" type="line"/>
    </contour>
  </outline>
</glyph>
<glyph name="two" format="2">
  <advance width="401"/>
  <unicode hex="0032"/>
  <outline>
    <contour>
      <point x="48" y="59" type="line"/>
      <point x="244" y="407" type="line" smooth="yes"/>
      <point x="261" y="437"/>
      <point x="279" y="493"/>
      <point x="279" y="527" type="qcurve" smooth="yes"/>
      <point x="279" y="556" type="line" smooth="yes"/>
      <point x="279" y="601"/>
      <point x="239" y="649"/>
      <point x="198" y="649" type="qcurve" smooth="yes"/>
      <point x="163" y="649"/>
      <point x="122" y="601"/>
      <point x="122" y="557" type="qcurve" smooth="yes"/>
      <point x="122" y="516" type="line"/>
      <point x="48" y="516" type="line"/>
      <point x="48" y="564" type="line" smooth="yes"/>
      <point x="48" y="634"/>
      <point x="130" y="716"/>
      <point x="201" y="716" type="qcurve" smooth="yes"/>
      <point x="272" y="716"/>
      <point x="353" y="634"/>
      <point x="353" y="565" type="qcurve" smooth="yes"/>
      <point x="353" y="527" type="line" smooth="yes"/>
      <point x="353" y="483"/>
      <point x="331" y="414"/>
      <point x="306" y="372" type="qcurve" smooth="yes"/>
      <point x="134" y="67" type="line"/>
      <point x="350" y="67" type="line"/>
      <point x="350" y="0" type="line"/>
      <point x="48" y="0" type="line"/>
    </contour>
  </outline>
</glyph>
<glyph name="three" format="2">
  <advance width="414"/>
  <unicode hex="0033"/>
  <outline>
    <contour>
      <point x="48" y="69"/>
      <point x="48" y="139" type="qcurve" smooth="yes"/>
      <point x="48" y="184" type="line"/>
      <point x="122" y="184" type="line"/>
      <point x="122" y="145" type="line" smooth="yes"/>
      <point x="122" y="103"/>
      <point x="165" y="57"/>
      <point x="204" y="57" type="qcurve" smooth="yes"/>
      <point x="245" y="57"/>
      <point x="287" y="106"/>
      <point x="287" y="152" type="qcurve" smooth="yes"/>
      <point x="287" y="230" type="line" smooth="yes"/>
      <point x="287" y="281"/>
      <point x="246" y="334"/>
      <point x="200" y="334" type="qcurve" smooth="yes"/>
      <point x="170" y="334" type="line"/>
      <point x="170" y="400" type="line"/>
      <point x="200" y="400" type="line" smooth="yes"/>
      <point x="245" y="400"/>
      <point x="284" y="451"/>
      <point x="284" y="500" type="qcurve" smooth="yes"/>
      <point x="284" y="555" type="line" smooth="yes"/>
      <point x="284" y="601"/>
      <point x="242" y="649"/>
      <point x="203" y="649" type="qcurve" smooth="yes"/>
      <point x="165" y="649"/>
      <point x="124" y="603"/>
      <point x="124" y="561" type="qcurve" smooth="yes"/>
      <point x="124" y="520" type="line"/>
      <point x="50" y="520" type="line"/>
      <point x="50" y="562" type="line" smooth="yes"/>
      <point x="50" y="635"/>
      <point x="130" y="716"/>
      <point x="205" y="716" type="qcurve" smooth="yes"/>
      <point x="279" y="716"/>
      <point x="357" y="636"/>
      <point x="357" y="563" type="qcurve" smooth="yes"/>
      <point x="357" y="503" type="line" smooth="yes"/>
      <point x="357" y="452"/>
      <point x="324" y="389"/>
      <point x="284" y="371" type="qcurve"/>
      <point x="328" y="351"/>
      <point x="361" y="285"/>
      <point x="361" y="229" type="qcurve" smooth="yes"/>
      <point x="361" y="155" type="line" smooth="yes"/>
      <point x="361" y="76"/>
      <point x="280" y="-9"/>
      <point x="203" y="-9" type="qcurve" smooth="yes"/>
      <point x="128" y="-9"/>
    </contour>
  </outline>
</glyph>
<glyph name="four" format="2">
  <advance width="425"/>
  <unicode hex="0034"/>
  <outline>
    <contour>
      <point x="389" y="142" type="line"/>
      <point x="327" y="142" type="line"/>
      <point x="327" y="0" type="line"/>
      <point x="252" y="0" type="line"/>
      <point x="252" y="142" type="line"/>
      <point x="37" y="142" type="line"/>
      <point x="37" y="209" type="line"/>
      <point x="185" y="707" type="line"/>
      <point x="260" y="707" type="line"/>
      <point x="110" y="209" type="line"/>
      <point x="252" y="209" type="line"/>
      <point x="252" y="394" type="line"/>
      <point x="327" y="394" type="line"/>
      <point x="327" y="209" type="line"/>
      <point x="389" y="209" type="line"/>
    </contour>
  </outline>
</glyph>
<glyph name="five" format="2">
  <advance width="407"/>
  <unicode hex="0035"/>
  <outline>
    <contour>
      <point x="53" y="72"/>
      <point x="53" y="150" type="qcurve" smooth="yes"/>
      <point x="53" y="168" type="line"/>
      <point x="124" y="168" type="line"/>
      <point x="124" y="151" type="line" smooth="yes"/>
      <point x="124" y="58"/>
      <point x="202" y="57" type="qcurve" smooth="yes"/>
      <point x="242" y="57"/>
      <point x="280" y="106"/>
      <point x="280" y="159" type="qcurve" smooth="yes"/>
      <point x="280" y="286" type="line" smooth="yes"/>
      <point x="280" y="338"/>
      <point x="243" y="387"/>
      <point x="203" y="387" type="qcurve" smooth="yes"/>
      <point x="152" y="387"/>
      <point x="125" y="337" type="qcurve"/>
      <point x="61" y="337" type="line"/>
      <point x="61" y="707" type="line"/>
      <point x="348" y="707" type="line"/>
      <point x="348" y="637" type="line"/>
      <point x="131" y="637" type="line"/>
      <point x="131" y="420" type="line"/>
      <point x="145" y="435"/>
      <point x="189" y="454"/>
      <point x="217" y="454" type="qcurve" smooth="yes"/>
      <point x="354" y="454"/>
      <point x="354" y="287" type="qcurve" smooth="yes"/>
      <point x="354" y="162" type="line" smooth="yes"/>
      <point x="354" y="-9"/>
      <point x="203" y="-9" type="qcurve" smooth="yes"/>
      <point x="130" y="-9"/>
    </contour>
  </outline>
</glyph>
<glyph name="seven" format="2">
  <advance width="369"/>
  <unicode hex="0037"/>
  <outline>
    <contour>
      <point x="338" y="707" type="line"/>
      <point x="338" y="640" type="line"/>
      <point x="147" y="0" type="line"/>
      <point x="73" y="0" type="line"/>
      <point x="264" y="640" type="line"/>
      <point x="32" y="640" type="line"/>
      <point x="32" y="707" type="line"/>
    </contour>
  </outline>
</glyph>
<glyph name="eight" format="2">
  <advance width="412"/>
  <unicode hex="0038"/>
  <outline>
    <contour>
      <point x="53" y="79"/>
      <point x="53" y="157" type="qcurve" smooth="yes"/>
      <point x="53" y="234" type="line" smooth="yes"/>
      <point x="53" y="332"/>
      <point x="124" y="371" type="qcurve"/>
      <point x="92" y="388"/>
      <point x="57" y="455"/>
      <point x="57" y="497" type="qcurve" smooth="yes"/>
      <point x="57" y="562" type="line" smooth="yes"/>
      <point x="57" y="632"/>
      <point x="138" y="716"/>
      <point x="206" y="716" type="qcurve" smooth="yes"/>
      <point x="275" y="716"/>
      <point x="355" y="632"/>
      <point x="355" y="562" type="qcurve" smooth="yes"/>
      <point x="355" y="497" type="line" smooth="yes"/>
      <point x="355" y="454"/>
      <point x="321" y="387"/>
      <point x="289" y="371" type="qcurve"/>
      <point x="360" y="333"/>
      <point x="359" y="234" type="qcurve" smooth="yes"/>
      <point x="359" y="157" type="line" smooth="yes"/>
      <point x="359" y="79"/>
      <point x="279" y="-9"/>
      <point x="206" y="-9" type="qcurve" smooth="yes"/>
      <point x="134" y="-9"/>
    </contour>
    <contour>
      <point x="287" y="453"/>
      <point x="287" y="497" type="qcurve" smooth="yes"/>
      <point x="287" y="562" type="line" smooth="yes"/>
      <point x="287" y="604"/>
      <point x="244" y="652"/>
      <point x="206" y="652" type="qcurve" smooth="yes"/>
      <point x="168" y="652"/>
      <point x="126" y="603"/>
      <point x="126" y="562" type="qcurve" smooth="yes"/>
      <point x="126" y="497" type="line" smooth="yes"/>
      <point x="126" y="452"/>
      <point x="167" y="401"/>
      <point x="206" y="401" type="qcurve" smooth="yes"/>
      <point x="247" y="401"/>
    </contour>
    <contour>
      <point x="291" y="159" type="qcurve" smooth="yes"/>
      <point x="291" y="236" type="line" smooth="yes"/>
      <point x="291" y="339"/>
      <point x="206" y="339" type="qcurve" smooth="yes"/>
      <point x="163" y="339"/>
      <point x="122" y="284"/>
      <point x="122" y="236" type="qcurve" smooth="yes"/>
      <point x="122" y="159" type="line" smooth="yes"/>
      <point x="122" y="110"/>
      <point x="163" y="54"/>
      <point x="206" y="54" type="qcurve" smooth="yes"/>
      <point x="291" y="55"/>
    </contour>
  </outline>
</glyph>
<glyph name="equal" format="2">
  <advance width="430"/>
  <unicode hex="003D"/>
  <outline>
    <contour>
      <point x="41" y="411" type="line"/>
      <point x="390" y="411" type="line"/>
      <point x="390" y="344" type="line"/>
      <point x="41" y="344" type="line"/>
    </contour>
    <contour>
      <point x="41" y="220" type="line"/>
      <point x="390" y="220" type="line"/>
      <point x="390" y="153" type="line"/>
      <point x="41" y="153" type="line"/>
    </contour>
  </outline>
</glyph>
<glyph name="at" format="2">
  <advance width="751"/>
  <unicode hex="0040"/>
  <outline>
    <contour>
      <point x="129" y="-46"/>
      <point x="51" y="109"/>
      <point x="51" y="213" type="qcurve" smooth="yes"/>
      <point x="51" y="371" type="line" smooth="yes"/>
      <point x="51" y="472"/>
      <point x="131" y="626"/>
      <point x="278" y="709"/>
      <point x="375" y="709" type="qcurve" smooth="yes"/>
      <point x="471" y="709"/>
      <point x="620" y="626"/>
      <point x="700" y="476"/>
      <point x="700" y="380" type="qcurve" smooth="yes"/>
      <point x="700" y="221" type="line" smooth="yes"/>
      <point x="700" y="140"/>
      <point x="632" y="57"/>
      <point x="569" y="57" type="qcurve" smooth="yes"/>
      <point x="530" y="57"/>
      <point x="473" y="92"/>
      <point x="460" y="124" type="qcurve"/>
      <point x="446" y="90"/>
      <point x="395" y="57"/>
      <point x="354" y="57" type="qcurve" smooth="yes"/>
      <point x="294" y="57"/>
      <point x="239" y="136"/>
      <point x="239" y="210" type="qcurve" smooth="yes"/>
      <point x="239" y="360" type="line" smooth="yes"/>
      <point x="239" y="433"/>
      <point x="292" y="510"/>
      <point x="352" y="510" type="qcurve" smooth="yes"/>
      <point x="411" y="510"/>
      <point x="440" y="463" type="qcurve"/>
      <point x="440" y="502" type="line"/>
      <point x="510" y="502" type="line"/>
      <point x="510" y="190" type="line" smooth="yes"/>
      <point x="510" y="155"/>
      <point x="544" y="119"/>
      <point x="570" y="119" type="qcurve" smooth="yes"/>
      <point x="604" y="119"/>
      <point x="634" y="167"/>
      <point x="634" y="214" type="qcurve" smooth="yes"/>
      <point x="634" y="379" type="line" smooth="yes"/>
      <point x="634" y="502"/>
      <point x="496" y="646"/>
      <point x="375" y="646" type="qcurve" smooth="yes"/>
      <point x="253" y="646"/>
      <point x="119" y="501"/>
      <point x="119" y="371" type="qcurve" smooth="yes"/>
      <point x="119" y="214" type="line" smooth="yes"/>
      <point x="119" y="81"/>
      <point x="253" y="-69"/>
      <point x="375" y="-69" type="qcurve" smooth="yes"/>
      <point x="430" y="-69"/>
      <point x="514" y="-44"/>
      <point x="554" y="-16" type="qcurve"/>
      <point x="587" y="-68" type="line"/>
      <point x="539" y="-101"/>
      <point x="436" y="-131"/>
      <point x="375" y="-131" type="qcurve" smooth="yes"/>
      <point x="275" y="-131"/>
    </contour>
    <contour>
      <point x="440" y="169"/>
      <point x="440" y="212" type="qcurve" smooth="yes"/>
      <point x="440" y="358" type="line" smooth="yes"/>
      <point x="440" y="401"/>
      <point x="410" y="446"/>
      <point x="374" y="446" type="qcurve" smooth="yes"/>
      <point x="338" y="446"/>
      <point x="309" y="401"/>
      <point x="309" y="359" type="qcurve" smooth="yes"/>
      <point x="309" y="211" type="line" smooth="yes"/>
      <point x="309" y="167"/>
      <point x="339" y="121"/>
      <point x="374" y="121" type="qcurve" smooth="yes"/>
      <point x="411" y="121"/>
    </contour>
  </outline>
</glyph>
<glyph name="A" format="2">
  <advance width="472"/>
  <unicode hex="0041"/>
  <outline>
    <contour>
      <point x="339" y="180" type="line"/>
      <point x="132" y="180" type="line"/>
      <point x="87" y="0" type="line"/>
      <point x="9" y="0" type="line"/>
      <point x="202" y="707" type="line"/>
      <point x="270" y="707" type="line"/>
      <point x="463" y="0" type="line"/>
      <point x="384" y="0" type="line"/>
    </contour>
    <contour>
      <point x="323" y="245" type="line"/>
      <point x="236" y="594" type="line"/>
      <point x="148" y="245" type="line"/>
    </contour>
  </outline>
</glyph>
<glyph name="B" format="2">
  <advance width="481"/>
  <unicode hex="0042"/>
  <outline>
    <contour>
      <point x="428" y="195" type="qcurve" smooth="yes"/>
      <point x="428" y="99"/>
      <point x="339" y="0"/>
      <point x="243" y="0" type="qcurve" smooth="yes"/>
      <point x="61" y="0" type="line"/>
      <point x="61" y="707" type="line"/>
      <point x="242" y="707" type="line" smooth="yes"/>
      <point x="336" y="707"/>
      <point x="421" y="615"/>
      <point x="421" y="522" type="qcurve" smooth="yes"/>
      <point x="421" y="401"/>
      <point x="328" y="367" type="qcurve"/>
      <point x="428" y="339"/>
    </contour>
    <contour>
      <point x="136" y="640" type="line"/>
      <point x="136" y="399" type="line"/>
      <point x="236" y="399" type="line" smooth="yes"/>
      <point x="347" y="399"/>
      <point x="346" y="518" type="qcurve" smooth="yes"/>
      <point x="346" y="584"/>
      <point x="294" y="640"/>
      <point x="237" y="640" type="qcurve" smooth="yes"/>
    </contour>
    <contour>
      <point x="353" y="132"/>
      <point x="353" y="200" type="qcurve" smooth="yes"/>
      <point x="353" y="333"/>
      <point x="237" y="333" type="qcurve" smooth="yes"/>
      <point x="136" y="333" type="line"/>
      <point x="136" y="67" type="line"/>
      <point x="237" y="67" type="line" smooth="yes"/>
      <point x="298" y="67"/>
    </contour>
  </outline>
</glyph>
<glyph name="C" format="2">
  <advance width="489"/>
  <unicode hex="0043"/>
  <outline>
    <contour>
      <point x="53" y="99"/>
      <point x="53" y="206" type="qcurve" smooth="yes"/>
      <point x="53" y="501" type="line" smooth="yes"/>
      <point x="53" y="609"/>
      <point x="159" y="716"/>
      <point x="246" y="716" type="qcurve" smooth="yes"/>
      <point x="330" y="716"/>
      <point x="436" y="613"/>
      <point x="436" y="510" type="qcurve" smooth="yes"/>
      <point x="436" y="501" type="line"/>
      <point x="361" y="501" type="line"/>
      <point x="361" y="508" type="line" smooth="yes"/>
      <point x="361" y="581"/>
      <point x="299" y="648"/>
      <point x="247" y="648" type="qcurve" smooth="yes"/>
      <point x="188" y="648"/>
      <point x="128" y="573"/>
      <point x="128" y="494" type="qcurve" smooth="yes"/>
      <point x="128" y="205" type="line" smooth="yes"/>
      <point x="128" y="60"/>
      <point x="247" y="59" type="qcurve" smooth="yes"/>
      <point x="300" y="59"/>
      <point x="361" y="127"/>
      <point x="361" y="197" type="qcurve" smooth="yes"/>
      <point x="361" y="206" type="line"/>
      <point x="434" y="206" type="line"/>
      <point x="434" y="196" type="line" smooth="yes"/>
      <point x="434" y="94"/>
      <point x="330" y="-8"/>
      <point x="247" y="-8" type="qcurve" smooth="yes"/>
      <point x="160" y="-8"/>
    </contour>
  </outline>
</glyph>
<glyph name="D" format="2">
  <advance width="488"/>
  <unicode hex="0044"/>
  <outline>
    <contour>
      <point x="61" y="707" type="line"/>
      <point x="245" y="707" type="line" smooth="yes"/>
      <point x="331" y="707"/>
      <point x="435" y="600"/>
      <point x="435" y="493" type="qcurve" smooth="yes"/>
      <point x="435" y="214" type="line" smooth="yes"/>
      <point x="435" y="108"/>
      <point x="331" y="0"/>
      <point x="245" y="0" type="qcurve" smooth="yes"/>
      <point x="61" y="0" type="line"/>
    </contour>
    <contour>
      <point x="245" y="67" type="line" smooth="yes"/>
      <point x="300" y="67"/>
      <point x="360" y="140"/>
      <point x="360" y="213" type="qcurve" smooth="yes"/>
      <point x="360" y="485" type="line" smooth="yes"/>
      <point x="360" y="563"/>
      <point x="301" y="640"/>
      <point x="245" y="640" type="qcurve" smooth="yes"/>
      <point x="136" y="640" type="line"/>
      <point x="136" y="67" type="line"/>
    </contour>
  </outline>
</glyph>
<glyph name="L" format="2">
  <advance width="400"/>
  <unicode hex="004C"/>
  <outline>
    <contour>
      <point x="61" y="707" type="line"/>
      <point x="136" y="707" type="line"/>
      <point x="136" y="67" type="line"/>
      <point x="376" y="67" type="line"/>
      <point x="376" y="0" type="line"/>
      <point x="61" y="0" type="line"/>
    </contour>
  </outline>
</glyph>
<glyph name="N" format="2">
  <advance width="514"/>
  <unicode hex="004E"/>
  <outline>
    <contour>
      <point x="453" y="707" type="line"/>
      <point x="453" y="0" type="line"/>
      <point x="378" y="0" type="line"/>
      <point x="136" y="543" type="line"/>
      <point x="136" y="0" type="line"/>
      <point x="61" y="0" type="line"/>
      <point x="61" y="707" type="line"/>
      <point x="136" y="707" type="line"/>
      <point x="378" y="163" type="line"/>
      <point x="378" y="707" type="line"/>
    </contour>
  </outline>
</glyph>
<glyph name="R" format="2">
  <advance width="477"/>
  <unicode hex="0052"/>
  <outline>
    <contour>
      <point x="250" y="309" type="line"/>
      <point x="136" y="309" type="line"/>
      <point x="136" y="0" type="line"/>
      <point x="61" y="0" type="line"/>
      <point x="61" y="707" type="line"/>
      <point x="248" y="707" type="line" smooth="yes"/>
      <point x="341" y="707"/>
      <point x="426" y="608"/>
      <point x="426" y="507" type="qcurve" smooth="yes"/>
      <point x="426" y="355"/>
      <point x="322" y="321" type="qcurve"/>
      <point x="446" y="0" type="line"/>
      <point x="367" y="0" type="line"/>
    </contour>
    <contour>
      <point x="136" y="375" type="line"/>
      <point x="247" y="375" type="line" smooth="yes"/>
      <point x="301" y="375"/>
      <point x="351" y="441"/>
      <point x="351" y="507" type="qcurve" smooth="yes"/>
      <point x="351" y="574"/>
      <point x="303" y="640"/>
      <point x="247" y="640" type="qcurve" smooth="yes"/>
      <point x="136" y="640" type="line"/>
    </contour>
  </outline>
</glyph>
<glyph name="Z" format="2">
  <advance width="394"/>
  <unicode hex="005A"/>
  <outline>
    <contour>
      <point x="367" y="67" type="line"/>
      <point x="367" y="0" type="line"/>
      <point x="31" y="0" type="line"/>
      <point x="31" y="67" type="line"/>
      <point x="286" y="640" type="line"/>
      <point x="42" y="640" type="line"/>
      <point x="42" y="707" type="line"/>
      <point x="359" y="707" type="line"/>
      <point x="359" y="640" type="line"/>
      <point x="103" y="67" type="line"/>
    </contour>
  </outline>
</glyph>
<glyph name="grave" format="2">
  <advance width="513"/>
  <unicode hex="0060"/>
  <outline>
    <contour>
      <point x="275" y="590" type="line"/>
      <point x="164" y="722" type="line"/>
      <point x="240" y="722" type="line"/>
      <point x="333" y="590" type="line"/>
    </contour>
  </outline>
</glyph>
<glyph name="b" format="2">
  <advance width="421"/>
  <unicode hex="0062"/>
  <outline>
    <contour>
      <point x="130" y="48" type="qcurve"/>
      <point x="130" y="0" type="line"/>
      <point x="60" y="0" type="line"/>
      <point x="60" y="707" type="line"/>
      <point x="130" y="707" type="line"/>
      <point x="130" y="478" type="line"/>
      <point x="165" y="537"/>
      <point x="230" y="538" type="qcurve" smooth="yes"/>
      <point x="293" y="538"/>
      <point x="371" y="449"/>
      <point x="371" y="357" type="qcurve" smooth="yes"/>
      <point x="371" y="172" type="line" smooth="yes"/>
      <point x="371" y="81"/>
      <point x="294" y="-8"/>
      <point x="231" y="-8" type="qcurve" smooth="yes"/>
      <point x="165" y="-8"/>
    </contour>
    <contour>
      <point x="301" y="113"/>
      <point x="301" y="180" type="qcurve" smooth="yes"/>
      <point x="301" y="349" type="line" smooth="yes"/>
      <point x="301" y="475"/>
      <point x="218" y="475" type="qcurve" smooth="yes"/>
      <point x="175" y="475"/>
      <point x="130" y="411"/>
      <point x="130" y="348" type="qcurve" smooth="yes"/>
      <point x="130" y="179" type="line" smooth="yes"/>
      <point x="130" y="118"/>
      <point x="175" y="54"/>
      <point x="218" y="54" type="qcurve" smooth="yes"/>
      <point x="259" y="54"/>
    </contour>
  </outline>
</glyph>
<glyph name="e" format="2">
  <advance width="417"/>
  <unicode hex="0065"/>
  <outline>
    <contour>
      <point x="121" y="244" type="line"/>
      <point x="121" y="181" type="line" smooth="yes"/>
      <point x="121" y="111"/>
      <point x="169" y="52"/>
      <point x="213" y="52" type="qcurve" smooth="yes"/>
      <point x="297" y="52"/>
      <point x="297" y="158" type="qcurve" smooth="yes"/>
      <point x="297" y="162" type="line"/>
      <point x="366" y="162" type="line"/>
      <point x="366" y="159" type="line" smooth="yes"/>
      <point x="366" y="76"/>
      <point x="285" y="-8"/>
      <point x="211" y="-8" type="qcurve" smooth="yes"/>
      <point x="51" y="-8"/>
      <point x="51" y="180" type="qcurve" smooth="yes"/>
      <point x="51" y="351" type="line" smooth="yes"/>
      <point x="51" y="443"/>
      <point x="134" y="538"/>
      <point x="208" y="538" type="qcurve" smooth="yes"/>
      <point x="282" y="538"/>
      <point x="367" y="443"/>
      <point x="367" y="351" type="qcurve" smooth="yes"/>
      <point x="367" y="244" type="line"/>
    </contour>
    <contour>
      <point x="121" y="417"/>
      <point x="121" y="349" type="qcurve" smooth="yes"/>
      <point x="121" y="297" type="line"/>
      <point x="298" y="297" type="line"/>
      <point x="298" y="351" type="line" smooth="yes"/>
      <point x="298" y="418"/>
      <point x="252" y="475"/>
      <point x="209" y="475" type="qcurve" smooth="yes"/>
      <point x="166" y="475"/>
    </contour>
  </outline>
</glyph>
<glyph name="l" format="2">
  <advance width="239"/>
  <unicode hex="006C"/>
  <outline>
    <contour>
      <point x="60" y="72"/>
      <point x="60" y="140" type="qcurve" smooth="yes"/>
      <point x="60" y="707" type="line"/>
      <point x="131" y="707" type="line"/>
      <point x="131" y="143" type="line" smooth="yes"/>
      <point x="131" y="62"/>
      <point x="204" y="62" type="qcurve" smooth="yes"/>
      <point x="219" y="62" type="line"/>
      <point x="219" y="0" type="line"/>
      <point x="202" y="0" type="line" smooth="yes"/>
      <point x="133" y="0"/>
    </contour>
  </outline>
</glyph>
<glyph name="t" format="2">
  <advance width="302"/>
  <unicode hex="0074"/>
  <outline>
    <contour>
      <point x="165" y="475" type="line"/>
      <point x="165" y="142" type="line" smooth="yes"/>
      <point x="165" y="101"/>
      <point x="204" y="61"/>
      <point x="244" y="61" type="qcurve" smooth="yes"/>
      <point x="258" y="61" type="line"/>
      <point x="258" y="0" type="line"/>
      <point x="241" y="0" type="line" smooth="yes"/>
      <point x="96" y="0"/>
      <point x="95" y="139" type="qcurve" smooth="yes"/>
      <point x="95" y="475" type="line"/>
      <point x="28" y="475" type="line"/>
      <point x="28" y="529" type="line"/>
      <point x="95" y="529" type="line"/>
      <point x="95" y="640" type="line"/>
      <point x="165" y="672" type="line"/>
      <point x="165" y="529" type="line"/>
      <point x="266" y="529" type="line"/>
      <point x="266" y="475" type="line"/>
    </contour>
  </outline>
</glyph>
<glyph name="u" format="2">
  <advance width="425"/>
  <unicode hex="0075"/>
  <outline>
    <contour>
      <point x="60" y="77"/>
      <point x="60" y="163" type="qcurve" smooth="yes"/>
      <point x="60" y="529" type="line"/>
      <point x="130" y="529" type="line"/>
      <point x="130" y="210" type="line" smooth="yes"/>
      <point x="130" y="126"/>
      <point x="164" y="54"/>
      <point x="214" y="54" type="qcurve" smooth="yes"/>
      <point x="248" y="54"/>
      <point x="283" y="85"/>
      <point x="296" y="151"/>
      <point x="296" y="210" type="qcurve" smooth="yes"/>
      <point x="296" y="529" type="line"/>
      <point x="366" y="529" type="line"/>
      <point x="366" y="163" type="line" smooth="yes"/>
      <point x="366" y="77"/>
      <point x="291" y="-8"/>
      <point x="213" y="-8" type="qcurve" smooth="yes"/>
      <point x="135" y="-8"/>
    </contour>
  </outline>
</glyph>
<glyph name="z" format="2">
  <advance width="385"/>
  <unicode hex="007A"/>
  <outline>
    <contour>
      <point x="334" y="466" type="line"/>
      <point x="126" y="63" type="line"/>
      <point x="334" y="63" type="line"/>
      <point x="334" y="0" type="line"/>
      <point x="51" y="0" type="line"/>
      <point x="51" y="63" type="line"/>
      <point x="259" y="466" type="line"/>
      <point x="51" y="466" type="line"/>
      <point x="51" y="529" type="line"/>
      <point x="334" y="529" type="line"/>
    </contour>
  </outline>
</glyph>
<glyph name="braceright" format="2">
  <advance width="314"/>
  <unicode hex="007D"/>
  <outline>
    <contour>
      <point x="51" y="-19" type="line"/>
      <point x="76" y="-19" type="line" smooth="yes"/>
      <point x="121" y="-19"/>
      <point x="121" y="31" type="qcurve" smooth="yes"/>
      <point x="121" y="210" type="line" smooth="yes"/>
      <point x="121" y="270"/>
      <point x="144" y="324"/>
      <point x="180" y="339" type="qcurve"/>
      <point x="144" y="352"/>
      <point x="121" y="407"/>
      <point x="121" y="467" type="qcurve" smooth="yes"/>
      <point x="121" y="641" type="line" smooth="yes"/>
      <point x="121" y="691"/>
      <point x="76" y="691" type="qcurve" smooth="yes"/>
      <point x="51" y="691" type="line"/>
      <point x="51" y="758" type="line"/>
      <point x="91" y="758" type="line" smooth="yes"/>
      <point x="144" y="758"/>
      <point x="196" y="700"/>
      <point x="196" y="642" type="qcurve" smooth="yes"/>
      <point x="196" y="451" type="line" smooth="yes"/>
      <point x="196" y="408"/>
      <point x="225" y="372"/>
      <point x="263" y="371" type="qcurve"/>
      <point x="263" y="306" type="line"/>
      <point x="225" y="305"/>
      <point x="196" y="269"/>
      <point x="196" y="228" type="qcurve" smooth="yes"/>
      <point x="196" y="30" type="line" smooth="yes"/>
      <point x="196" y="-28"/>
      <point x="144" y="-86"/>
      <point x="91" y="-86" type="qcurve" smooth="yes"/>
      <point x="51" y="-86" type="line"/>
    </contour>
  </outline>
</glyph>
<glyph name="currency" format="2">
  <advance width="598"/>
  <unicode hex="00A4"/>
  <outline>
    <contour>
      <point x="417" y="166" type="line"/>
      <point x="363" y="130"/>
      <point x="299" y="130" type="qcurve" smooth="yes"/>
      <point x="234" y="130"/>
      <point x="181" y="166" type="qcurve"/>
      <point x="112" y="97" type="line"/>
      <point x="60" y="150" type="line"/>
      <point x="130" y="218" type="line"/>
      <point x="95" y="268"/>
      <point x="95" y="335" type="qcurve" smooth="yes"/>
      <point x="95" y="403"/>
      <point x="131" y="451" type="qcurve"/>
      <point x="61" y="521" type="line"/>
      <point x="113" y="572" type="line"/>
      <point x="181" y="503" type="line"/>
      <point x="233" y="539"/>
      <point x="299" y="539" type="qcurve" smooth="yes"/>
      <point x="364" y="539"/>
      <point x="416" y="503" type="qcurve"/>
      <point x="485" y="572" type="line"/>
      <point x="537" y="521" type="line"/>
      <point x="467" y="452" type="line"/>
      <point x="503" y="400"/>
      <point x="503" y="335" type="qcurve" smooth="yes"/>
      <point x="503" y="268"/>
      <point x="468" y="218" type="qcurve"/>
      <point x="538" y="148" type="line"/>
      <point x="486" y="96" type="line"/>
    </contour>
    <contour>
      <point x="430" y="278"/>
      <point x="430" y="335" type="qcurve" smooth="yes"/>
      <point x="430" y="392"/>
      <point x="355" y="468"/>
      <point x="299" y="468" type="qcurve" smooth="yes"/>
      <point x="242" y="468"/>
      <point x="168" y="392"/>
      <point x="168" y="335" type="qcurve" smooth="yes"/>
      <point x="168" y="277"/>
      <point x="242" y="201"/>
      <point x="299" y="201" type="qcurve" smooth="yes"/>
      <point x="355" y="201"/>
    </contour>
  </outline>
</glyph>
<glyph name="ordfeminine" format="2">
  <advance width="301"/>
  <unicode hex="00AA"/>
  <outline>
    <contour>
      <point x="253" y="711"/>
      <point x="253" y="662" type="qcurve" smooth="yes"/>
      <point x="253" y="440" type="line"/>
      <point x="189" y="440" type="line"/>
      <point x="189" y="469" type="line"/>
      <point x="176" y="452"/>
      <point x="147" y="435"/>
      <point x="125" y="435" type="qcurve" smooth="yes"/>
      <point x="82" y="435"/>
      <point x="37" y="487"/>
      <point x="37" y="535" type="qcurve" smooth="yes"/>
      <point x="37" y="579"/>
      <point x="93" y="628"/>
      <point x="143" y="628" type="qcurve" smooth="yes"/>
      <point x="186" y="628" type="line"/>
      <point x="186" y="667" type="line" smooth="yes"/>
      <point x="186" y="709"/>
      <point x="146" y="709" type="qcurve" smooth="yes"/>
      <point x="128" y="709"/>
      <point x="108" y="689"/>
      <point x="108" y="672" type="qcurve" smooth="yes"/>
      <point x="108" y="667" type="line"/>
      <point x="46" y="667" type="line"/>
      <point x="46" y="670" type="line" smooth="yes"/>
      <point x="46" y="716"/>
      <point x="101" y="766"/>
      <point x="147" y="766" type="qcurve" smooth="yes"/>
      <point x="198" y="766"/>
    </contour>
    <contour>
      <point x="186" y="519"/>
      <point x="186" y="542" type="qcurve" smooth="yes"/>
      <point x="186" y="581" type="line"/>
      <point x="153" y="581" type="line" smooth="yes"/>
      <point x="128" y="581"/>
      <point x="103" y="560"/>
      <point x="103" y="537" type="qcurve" smooth="yes"/>
      <point x="103" y="494"/>
      <point x="142" y="494" type="qcurve" smooth="yes"/>
      <point x="163" y="494"/>
    </contour>
    <contour>
      <point x="140" y="867" type="move" smooth="yes"/>
    </contour>
  </outline>
</glyph>
<glyph name="guillemotleft" format="2">
  <advance width="432"/>
  <unicode hex="00AB"/>
  <outline>
    <contour>
      <point x="20" y="270" type="line"/>
      <point x="204" y="458" type="line"/>
      <point x="204" y="380" type="line"/>
      <point x="97" y="270" type="line"/>
      <point x="204" y="161" type="line"/>
      <point x="204" y="83" type="line"/>
    </contour>
    <contour>
      <point x="189" y="270" type="line"/>
      <point x="372" y="458" type="line"/>
      <point x="372" y="380" type="line"/>
      <point x="266" y="270" type="line"/>
      <point x="372" y="161" type="line"/>
      <point x="372" y="83" type="line"/>
    </contour>
  </outline>
</glyph>
<glyph name="cedilla" format="2">
  <advance width="513"/>
  <unicode hex="00B8"/>
  <outline>
    <contour>
      <point x="259" y="12" type="line"/>
      <point x="326" y="12" type="line"/>
      <point x="266" y="-156" type="line"/>
      <point x="188" y="-156" type="line"/>
    </contour>
  </outline>
</glyph>
<glyph name="ordmasculine" format="2">
  <advance width="302"/>
  <unicode hex="00BA"/>
  <outline>
    <contour>
      <point x="42" y="558" type="qcurve" smooth="yes"/>
      <point x="42" y="644" type="line" smooth="yes"/>
      <point x="42" y="709"/>
      <point x="98" y="766"/>
      <point x="152" y="766" type="qcurve" smooth="yes"/>
      <point x="205" y="766"/>
      <point x="260" y="709"/>
      <point x="260" y="644" type="qcurve" smooth="yes"/>
      <point x="260" y="558" type="line" smooth="yes"/>
      <point x="260" y="493"/>
      <point x="205" y="435"/>
      <point x="152" y="435" type="qcurve" smooth="yes"/>
      <point x="42" y="435"/>
    </contour>
    <contour>
      <point x="194" y="557" type="qcurve" smooth="yes"/>
      <point x="194" y="645" type="line" smooth="yes"/>
      <point x="194" y="706"/>
      <point x="152" y="707" type="qcurve" smooth="yes"/>
      <point x="109" y="707"/>
      <point x="109" y="645" type="qcurve" smooth="yes"/>
      <point x="109" y="557" type="line" smooth="yes"/>
      <point x="109" y="496"/>
      <point x="152" y="496" type="qcurve" smooth="yes"/>
      <point x="194" y="496"/>
    </contour>
    <contour>
      <point x="144" y="867" type="move" smooth="yes"/>
    </contour>
  </outline>
</glyph>
<glyph name="onequarter" format="2">
  <advance width="650"/>
  <unicode hex="00BC"/>
  <outline>
    <contour>
      <point x="85" y="279" type="line"/>
      <point x="85" y="627" type="line"/>
      <point x="22" y="575" type="line"/>
      <point x="22" y="656" type="line"/>
      <point x="85" y="707" type="line"/>
      <point x="158" y="707" type="line"/>
      <point x="158" y="279" type="line"/>
    </contour>
    <contour>
      <point x="457" y="707" type="line"/>
      <point x="203" y="0" type="line"/>
      <point x="138" y="0" type="line"/>
      <point x="392" y="707" type="line"/>
    </contour>
    <contour>
      <point x="625" y="76" type="line"/>
      <point x="593" y="76" type="line"/>
      <point x="593" y="0" type="line"/>
      <point x="521" y="0" type="line"/>
      <point x="521" y="76" type="line"/>
      <point x="384" y="76" type="line"/>
      <point x="384" y="139" type="line"/>
      <point x="478" y="428" type="line"/>
      <point x="550" y="428" type="line"/>
      <point x="456" y="139" type="line"/>
      <point x="521" y="139" type="line"/>
      <point x="521" y="238" type="line"/>
      <point x="593" y="238" type="line"/>
      <point x="593" y="139" type="line"/>
      <point x="625" y="139" type="line"/>
    </contour>
  </outline>
</glyph>
<glyph name="questiondown" format="2">
  <advance width="371"/>
  <unicode hex="00BF"/>
  <outline>
    <contour>
      <point x="148" y="529" type="line"/>
      <point x="228" y="529" type="line"/>
      <point x="228" y="430" type="line"/>
      <point x="148" y="430" type="line"/>
    </contour>
    <contour>
      <point x="38" y="-79"/>
      <point x="38" y="-1" type="qcurve" smooth="yes"/>
      <point x="38" y="38"/>
      <point x="59" y="99"/>
      <point x="89" y="150" type="qcurve" smooth="yes"/>
      <point x="124" y="208" type="line" smooth="yes"/>
      <point x="141" y="238"/>
      <point x="152" y="274"/>
      <point x="152" y="304" type="qcurve" smooth="yes"/>
      <point x="152" y="340" type="line"/>
      <point x="226" y="340" type="line"/>
      <point x="226" y="300" type="line" smooth="yes"/>
      <point x="226" y="264"/>
      <point x="213" y="218"/>
      <point x="188" y="178" type="qcurve" smooth="yes"/>
      <point x="147" y="111" type="line" smooth="yes"/>
      <point x="128" y="79"/>
      <point x="113" y="32"/>
      <point x="113" y="-1" type="qcurve" smooth="yes"/>
      <point x="113" y="-101"/>
      <point x="188" y="-101" type="qcurve" smooth="yes"/>
      <point x="232" y="-101"/>
      <point x="266" y="-42"/>
      <point x="266" y="25" type="qcurve"/>
      <point x="341" y="25" type="line"/>
      <point x="339" y="-168"/>
      <point x="189" y="-168" type="qcurve" smooth="yes"/>
      <point x="116" y="-168"/>
    </contour>
  </outline>
</glyph>
<glyph name="Aring" format="2">
  <advance width="472"/>
  <unicode hex="00C5"/>
  <outline>
    <contour>
      <point x="339" y="180" type="line"/>
      <point x="132" y="180" type="line"/>
      <point x="87" y="0" type="line"/>
      <point x="9" y="0" type="line"/>
      <point x="202" y="707" type="line"/>
      <point x="176" y="717"/>
      <point x="145" y="762"/>
      <point x="145" y="792" type="qcurve" smooth="yes"/>
      <point x="145" y="831"/>
      <point x="197" y="883"/>
      <point x="236" y="883" type="qcurve" smooth="yes"/>
      <point x="276" y="883"/>
      <point x="328" y="830"/>
      <point x="328" y="792" type="qcurve" smooth="yes"/>
      <point x="328" y="762"/>
      <point x="297" y="717"/>
      <point x="270" y="707" type="qcurve"/>
      <point x="463" y="0" type="line"/>
      <point x="384" y="0" type="line"/>
    </contour>
    <contour>
      <point x="214" y="740"/>
      <point x="236" y="740" type="qcurve" smooth="yes"/>
      <point x="259" y="740"/>
      <point x="286" y="769"/>
      <point x="286" y="792" type="qcurve" smooth="yes"/>
      <point x="286" y="815"/>
      <point x="258" y="844"/>
      <point x="236" y="844" type="qcurve" smooth="yes"/>
      <point x="214" y="844"/>
      <point x="186" y="814"/>
      <point x="186" y="792" type="qcurve" smooth="yes"/>
      <point x="186" y="769"/>
    </contour>
    <contour>
      <point x="323" y="245" type="line"/>
      <point x="236" y="594" type="line"/>
      <point x="148" y="245" type="line"/>
    </contour>
  </outline>
</glyph>
<glyph name="Eth" format="2">
  <advance width="517"/>
  <unicode hex="00D0"/>
  <outline>
    <contour>
      <point x="464" y="600"/>
      <point x="464" y="493" type="qcurve" smooth="yes"/>
      <point x="464" y="214" type="line" smooth="yes"/>
      <point x="464" y="108"/>
      <point x="359" y="0"/>
      <point x="273" y="0" type="qcurve" smooth="yes"/>
      <point x="90" y="0" type="line"/>
      <point x="90" y="326" type="line"/>
      <point x="31" y="326" type="line"/>
      <point x="31" y="392" type="line"/>
      <point x="90" y="392" type="line"/>
      <point x="90" y="707" type="line"/>
      <point x="273" y="707" type="line" smooth="yes"/>
      <point x="359" y="707"/>
    </contour>
    <contour>
      <point x="389" y="485" type="line" smooth="yes"/>
      <point x="389" y="563"/>
      <point x="330" y="640"/>
      <point x="273" y="640" type="qcurve" smooth="yes"/>
      <point x="165" y="640" type="line"/>
      <point x="165" y="392" type="line"/>
      <point x="274" y="392" type="line"/>
      <point x="274" y="326" type="line"/>
      <point x="165" y="326" type="line"/>
      <point x="165" y="67" type="line"/>
      <point x="273" y="67" type="line" smooth="yes"/>
      <point x="328" y="67"/>
      <point x="389" y="140"/>
      <point x="389" y="213" type="qcurve" smooth="yes"/>
    </contour>
  </outline>
</glyph>
<glyph name="ccedilla" format="2">
  <advance width="418"/>
  <unicode hex="00E7"/>
  <outline>
    <contour>
      <point x="298" y="354" type="line"/>
      <point x="298" y="369" type="line" smooth="yes"/>
      <point x="298" y="475"/>
      <point x="212" y="475" type="qcurve" smooth="yes"/>
      <point x="167" y="475"/>
      <point x="121" y="418"/>
      <point x="121" y="349" type="qcurve" smooth="yes"/>
      <point x="121" y="180" type="line" smooth="yes"/>
      <point x="121" y="111"/>
      <point x="167" y="54"/>
      <point x="211" y="54" type="qcurve" smooth="yes"/>
      <point x="298" y="54"/>
      <point x="298" y="161" type="qcurve" smooth="yes"/>
      <point x="298" y="175" type="line"/>
      <point x="368" y="175" type="line"/>
      <point x="368" y="162" type="line" smooth="yes"/>
      <point x="368" y="94"/>
      <point x="315" y="13"/>
      <point x="266" y="-1" type="qcurve"/>
      <point x="212" y="-156" type="line"/>
      <point x="134" y="-156" type="line"/>
      <point x="197" y="-8" type="line"/>
      <point x="52" y="2"/>
      <point x="51" y="172" type="qcurve" smooth="yes"/>
      <point x="51" y="357" type="line" smooth="yes"/>
      <point x="51" y="450"/>
      <point x="135" y="538"/>
      <point x="211" y="538" type="qcurve" smooth="yes"/>
      <point x="286" y="538"/>
      <point x="368" y="454"/>
      <point x="368" y="369" type="qcurve" smooth="yes"/>
      <point x="368" y="354" type="line"/>
    </contour>
  </outline>
</glyph>
<glyph name="oslash" format="2">
  <advance width="418"/>
  <unicode hex="00F8"/>
  <outline>
    <contour>
      <point x="334" y="484" type="line"/>
      <point x="368" y="439"/>
      <point x="368" y="357" type="qcurve" smooth="yes"/>
      <point x="368" y="172" type="line" smooth="yes"/>
      <point x="368" y="80"/>
      <point x="285" y="-8"/>
      <point x="211" y="-8" type="qcurve" smooth="yes"/>
      <point x="153" y="-8"/>
      <point x="115" y="17" type="qcurve"/>
      <point x="92" y="-31" type="line"/>
      <point x="51" y="-31" type="line"/>
      <point x="86" y="44" type="line"/>
      <point x="51" y="88"/>
      <point x="51" y="172" type="qcurve" smooth="yes"/>
      <point x="51" y="357" type="line" smooth="yes"/>
      <point x="51" y="450"/>
      <point x="135" y="538"/>
      <point x="211" y="538" type="qcurve" smooth="yes"/>
      <point x="269" y="538"/>
      <point x="305" y="512" type="qcurve"/>
      <point x="327" y="557" type="line"/>
      <point x="368" y="557" type="line"/>
    </contour>
    <contour>
      <point x="126" y="128" type="qcurve"/>
      <point x="274" y="446" type="line"/>
      <point x="252" y="475"/>
      <point x="210" y="475" type="qcurve" smooth="yes"/>
      <point x="167" y="475"/>
      <point x="121" y="418"/>
      <point x="121" y="349" type="qcurve" smooth="yes"/>
      <point x="121" y="180" type="line" smooth="yes"/>
      <point x="121" y="152"/>
    </contour>
    <contour>
      <point x="294" y="399" type="qcurve"/>
      <point x="144" y="82" type="line"/>
      <point x="168" y="54"/>
      <point x="210" y="54" type="qcurve" smooth="yes"/>
      <point x="253" y="54"/>
      <point x="298" y="113"/>
      <point x="298" y="180" type="qcurve" smooth="yes"/>
      <point x="298" y="349" type="line" smooth="yes"/>
      <point x="298" y="380"/>
    </contour>
  </outline>
</glyph>
<glyph name="thorn" format="2">
  <advance width="421"/>
  <unicode hex="00FE"/>
  <outline>
    <contour>
      <point x="60" y="707" type="line"/>
      <point x="130" y="707" type="line"/>
      <point x="130" y="478" type="line"/>
      <point x="165" y="537"/>
      <point x="230" y="538" type="qcurve" smooth="yes"/>
      <point x="293" y="538"/>
      <point x="371" y="449"/>
      <point x="371" y="357" type="qcurve" smooth="yes"/>
      <point x="371" y="172" type="line" smooth="yes"/>
      <point x="371" y="81"/>
      <point x="294" y="-8"/>
      <point x="231" y="-8" type="qcurve" smooth="yes"/>
      <point x="164" y="-8"/>
      <point x="130" y="48" type="qcurve"/>
      <point x="130" y="-156" type="line"/>
      <point x="60" y="-156" type="line"/>
    </contour>
    <contour>
      <point x="301" y="113"/>
      <point x="301" y="180" type="qcurve" smooth="yes"/>
      <point x="301" y="349" type="line" smooth="yes"/>
      <point x="301" y="475"/>
      <point x="218" y="475" type="qcurve" smooth="yes"/>
      <point x="175" y="475"/>
      <point x="130" y="411"/>
      <point x="130" y="348" type="qcurve" smooth="yes"/>
      <point x="130" y="179" type="line" smooth="yes"/>
      <point x="130" y="118"/>
      <point x="175" y="54"/>
      <point x="218" y="54" type="qcurve" smooth="yes"/>
      <point x="259" y="54"/>
    </contour>
  </outline>
</glyph>
<glyph name="OE" format="2">
  <advance width="699"/>
  <unicode hex="0152"/>
  <outline>
    <contour>
      <point x="435" y="640" type="line"/>
      <point x="435" y="461" type="line" smooth="yes"/>
      <point x="436" y="448"/>
      <point x="436" y="419" type="qcurve" smooth="yes"/>
      <point x="436" y="393" type="line"/>
      <point x="629" y="393" type="line"/>
      <point x="629" y="326" type="line"/>
      <point x="436" y="326" type="line"/>
      <point x="436" y="296" type="line" smooth="yes"/>
      <point x="436" y="267"/>
      <point x="435" y="253" type="qcurve" smooth="yes"/>
      <point x="435" y="67" type="line"/>
      <point x="663" y="67" type="line"/>
      <point x="663" y="0" type="line"/>
      <point x="369" y="0" type="line"/>
      <point x="369" y="43" type="line"/>
      <point x="322" y="-8"/>
      <point x="239" y="-8" type="qcurve" smooth="yes"/>
      <point x="153" y="-8"/>
      <point x="53" y="98"/>
      <point x="53" y="206" type="qcurve" smooth="yes"/>
      <point x="53" y="502" type="line" smooth="yes"/>
      <point x="53" y="611"/>
      <point x="153" y="717"/>
      <point x="239" y="717" type="qcurve" smooth="yes"/>
      <point x="321" y="717"/>
      <point x="369" y="668" type="qcurve"/>
      <point x="369" y="707" type="line"/>
      <point x="663" y="707" type="line"/>
      <point x="663" y="640" type="line"/>
    </contour>
    <contour>
      <point x="361" y="495" type="line" smooth="yes"/>
      <point x="361" y="573"/>
      <point x="302" y="649"/>
      <point x="246" y="649" type="qcurve" smooth="yes"/>
      <point x="187" y="649"/>
      <point x="128" y="573"/>
      <point x="128" y="495" type="qcurve" smooth="yes"/>
      <point x="128" y="205" type="line" smooth="yes"/>
      <point x="128" y="60"/>
      <point x="246" y="59" type="qcurve" smooth="yes"/>
      <point x="301" y="59"/>
      <point x="361" y="132"/>
      <point x="361" y="205" type="qcurve" smooth="yes"/>
    </contour>
  </outline>
</glyph>
<glyph name="dotaccent" format="2">
  <advance width="513"/>
  <unicode hex="02D9"/>
  <outline>
    <contour>
      <point x="221" y="701" type="line"/>
      <point x="292" y="701" type="line"/>
      <point x="292" y="609" type="line"/>
      <point x="221" y="609" type="line"/>
    </contour>
  </outline>
</glyph>
<glyph name="ring" format="2">
  <advance width="524"/>
  <unicode hex="02DA"/>
  <outline>
    <contour>
      <point x="171" y="622"/>
      <point x="171" y="660" type="qcurve" smooth="yes"/>
      <point x="171" y="699"/>
      <point x="222" y="752"/>
      <point x="261" y="752" type="qcurve" smooth="yes"/>
      <point x="301" y="752"/>
      <point x="353" y="699"/>
      <point x="353" y="660" type="qcurve" smooth="yes"/>
      <point x="353" y="621"/>
      <point x="301" y="569"/>
      <point x="261" y="569" type="qcurve" smooth="yes"/>
      <point x="222" y="569"/>
    </contour>
    <contour>
      <point x="311" y="638"/>
      <point x="311" y="660" type="qcurve" smooth="yes"/>
      <point x="311" y="683"/>
      <point x="284" y="713"/>
      <point x="261" y="713" type="qcurve" smooth="yes"/>
      <point x="239" y="713"/>
      <point x="212" y="683"/>
      <point x="212" y="660" type="qcurve" smooth="yes"/>
      <point x="212" y="637"/>
      <point x="240" y="609"/>
      <point x="261" y="609" type="qcurve" smooth="yes"/>
      <point x="284" y="609"/>
    </contour>
  </outline>
</glyph>
<glyph name="uni030A" format="2">
  <advance width="0"/>
  <unicode hex="030A"/>
  <outline>
    <contour>
      <point x="-91" y="622"/>
      <point x="-91" y="660" type="qcurve" smooth="yes"/>
      <point x="-91" y="699"/>
      <point x="-40" y="752"/>
      <point x="-1" y="752" type="qcurve" smooth="yes"/>
      <point x="39" y="752"/>
      <point x="91" y="699"/>
      <point x="91" y="660" type="qcurve" smooth="yes"/>
      <point x="91" y="621"/>
      <point x="39" y="569"/>
      <point x="-1" y="569" type="qcurve" smooth="yes"/>
      <point x="-40" y="569"/>
    </contour>
    <contour>
      <point x="49" y="638"/>
      <point x="49" y="660" type="qcurve" smooth="yes"/>
      <point x="49" y="683"/>
      <point x="22" y="713"/>
      <point x="-1" y="713" type="qcurve" smooth="yes"/>
      <point x="-23" y="713"/>
      <point x="-50" y="683"/>
      <point x="-50" y="660" type="qcurve" smooth="yes"/>
      <point x="-50" y="637"/>
      <point x="-23" y="609"/>
      <point x="-1" y="609" type="qcurve" smooth="yes"/>
      <point x="22" y="609"/>
    </contour>
  </outline>
</glyph>
<glyph name="one.sups" format="2">
  <advance width="203"/>
  <outline>
    <contour>
      <point x="85" y="788" type="line"/>
      <point x="22" y="737" type="line"/>
      <point x="22" y="818" type="line"/>
      <point x="85" y="868" type="line"/>
      <point x="158" y="868" type="line"/>
      <point x="158" y="440" type="line"/>
      <point x="85" y="440" type="line"/>
    </contour>
  </outline>
</glyph>
<glyph name="three.sups" format="2">
  <advance width="274"/>
  <outline>
    <contour>
      <point x="31" y="488"/>
      <point x="31" y="536" type="qcurve" smooth="yes"/>
      <point x="31" y="561" type="line"/>
      <point x="98" y="561" type="line"/>
      <point x="98" y="538" type="line" smooth="yes"/>
      <point x="98" y="519"/>
      <point x="117" y="497"/>
      <point x="134" y="497" type="qcurve" smooth="yes"/>
      <point x="171" y="497"/>
      <point x="171" y="544" type="qcurve" smooth="yes"/>
      <point x="171" y="581" type="line" smooth="yes"/>
      <point x="171" y="607"/>
      <point x="152" y="630"/>
      <point x="130" y="630" type="qcurve" smooth="yes"/>
      <point x="112" y="630" type="line"/>
      <point x="112" y="692" type="line"/>
      <point x="130" y="692" type="line" smooth="yes"/>
      <point x="169" y="692"/>
      <point x="169" y="737" type="qcurve" smooth="yes"/>
      <point x="169" y="768" type="line" smooth="yes"/>
      <point x="169" y="813"/>
      <point x="134" y="813" type="qcurve" smooth="yes"/>
      <point x="117" y="813"/>
      <point x="99" y="792"/>
      <point x="99" y="772" type="qcurve" smooth="yes"/>
      <point x="99" y="749" type="line"/>
      <point x="31" y="749" type="line"/>
      <point x="31" y="775" type="line" smooth="yes"/>
      <point x="31" y="821"/>
      <point x="87" y="876"/>
      <point x="135" y="876" type="qcurve" smooth="yes"/>
      <point x="184" y="876"/>
      <point x="240" y="820"/>
      <point x="240" y="771" type="qcurve" smooth="yes"/>
      <point x="240" y="746" type="line" smooth="yes"/>
      <point x="240" y="715"/>
      <point x="218" y="676"/>
      <point x="195" y="665" type="qcurve"/>
      <point x="222" y="654"/>
      <point x="242" y="611"/>
      <point x="242" y="577" type="qcurve" smooth="yes"/>
      <point x="242" y="541" type="line" smooth="yes"/>
      <point x="242" y="492"/>
      <point x="183" y="434"/>
      <point x="135" y="434" type="qcurve" smooth="yes"/>
      <point x="85" y="434"/>
    </contour>
  </outline>
</glyph>
<glyph name="two.sups" format="2">
  <advance width="277"/>
  <outline>
    <contour>
      <point x="33" y="502" type="line"/>
      <point x="151" y="684" type="line" smooth="yes"/>
      <point x="163" y="703"/>
      <point x="173" y="732"/>
      <point x="173" y="751" type="qcurve" smooth="yes"/>
      <point x="173" y="771" type="line" smooth="yes"/>
      <point x="173" y="790"/>
      <point x="156" y="813"/>
      <point x="138" y="813" type="qcurve" smooth="yes"/>
      <point x="103" y="813"/>
      <point x="103" y="766" type="qcurve" smooth="yes"/>
      <point x="103" y="743" type="line"/>
      <point x="35" y="743" type="line"/>
      <point x="35" y="774" type="line" smooth="yes"/>
      <point x="35" y="820"/>
      <point x="92" y="876"/>
      <point x="140" y="876" type="qcurve" smooth="yes"/>
      <point x="187" y="876"/>
      <point x="244" y="819"/>
      <point x="244" y="773" type="qcurve" smooth="yes"/>
      <point x="244" y="749" type="line" smooth="yes"/>
      <point x="244" y="722"/>
      <point x="227" y="679"/>
      <point x="210" y="652" type="qcurve" smooth="yes"/>
      <point x="115" y="504" type="line"/>
      <point x="244" y="504" type="line"/>
      <point x="244" y="440" type="line"/>
      <point x="33" y="440" type="line"/>
    </contour>
  </outline>
</glyph>
<glyph name="zero.sups" format="2">
  <advance width="281"/>
  <outline>
    <contour>
      <point x="34" y="499"/>
      <point x="34" y="564" type="qcurve" smooth="yes"/>
      <point x="34" y="750" type="line" smooth="yes"/>
      <point x="34" y="815"/>
      <point x="87" y="878"/>
      <point x="141" y="878" type="qcurve" smooth="yes"/>
      <point x="196" y="878"/>
      <point x="249" y="814"/>
      <point x="249" y="750" type="qcurve" smooth="yes"/>
      <point x="249" y="564" type="line" smooth="yes"/>
      <point x="249" y="498"/>
      <point x="197" y="434"/>
      <point x="141" y="434" type="qcurve" smooth="yes"/>
      <point x="86" y="434"/>
    </contour>
    <contour>
      <point x="178" y="528"/>
      <point x="178" y="564" type="qcurve" smooth="yes"/>
      <point x="178" y="750" type="line" smooth="yes"/>
      <point x="178" y="785"/>
      <point x="162" y="814"/>
      <point x="141" y="814" type="qcurve" smooth="yes"/>
      <point x="121" y="814"/>
      <point x="104" y="784"/>
      <point x="104" y="750" type="qcurve" smooth="yes"/>
      <point x="104" y="564" type="line" smooth="yes"/>
      <point x="104" y="528"/>
      <point x="121" y="498"/>
      <point x="141" y="498" type="qcurve" smooth="yes"/>
      <point x="162" y="498"/>
    </contour>
  </outline>
</glyph>
